# xmcd
#
# Track frame offsets:
#	150
#	14627
#	25455
#	36305
#	51655
#	66497
#	81587
#	95035
#	109807
#	121550
#	135692
#	149682
#	161745
#	174217
#	190882
#	203287
#	216847
#	232770
#	243412
#	253400
#	266412
#	276810
#	289537
#	303997
#	318547
#
# Disc length: 4419 seconds
#
# Revision: 1
# Processed by: cddbd v1.5.1PL0 Copyright (c) Steve Scherf et al.
# Submitted via: CDex 1.50Beta5
#
DISCID=7d114119
DTITLE=さまざまなアーティスト - WILD BEAT TOUGH BOOGIE
DYEAR=1900
DGENRE=
TTITLE0=cuban get away
TTITLE1=got to it
TTITLE2=you're driving me insane
TTITLE3=three hours past midnight
TTITLE4=don't touch me
TTITLE5=hot little mama
TTITLE6=someone cares for me
TTITLE7=just one more time
TTITLE8=shattered dreame
TTITLE9=blues around midnight
TTITLE10=tramp
TTITLE11=going to chicago
TTITLE12=feel so bad
TTITLE13=just one more time
TTITLE14=shattered dreams
TTITLE15=blues around midnight
TTITLE16=tramp
TTITLE17=little school girl
TTITLE18=you can't tell them where i'm goin'
TTITLE19=i wonder
TTITLE20=i don't want you
TTITLE21=when the sun goes down
TTITLE22=tomorrow night
TTITLE23=romance in the dark
TTITLE24=you won't let me go
EXTD=
EXTT0=
EXTT1=
EXTT2=
EXTT3=
EXTT4=
EXTT5=
EXTT6=
EXTT7=
EXTT8=
EXTT9=
EXTT10=
EXTT11=
EXTT12=
EXTT13=
EXTT14=
EXTT15=
EXTT16=
EXTT17=
EXTT18=
EXTT19=
EXTT20=
EXTT21=
EXTT22=
EXTT23=
EXTT24=
PLAYORDER=
